<svg xmlns="http://www.w3.org/2000/svg" width="900" height="520" viewBox="0 0 900 520"><rect width="100%" height="100%" fill="white"/><text x="450.0" y="30" text-anchor="middle" font-size="20" font-weight="bold">Teaching resolution across repeated trials</text><line x1="90" y1="60" x2="90" y2="440" stroke="black"/><line x1="90" y1="440" x2="830" y2="440" stroke="black"/><line x1="85" y1="440.00" x2="830" y2="440.00" stroke="#dddddd"/><text x="80" y="444.00" text-anchor="end" font-size="12">0.0</text><line x1="85" y1="364.00" x2="830" y2="364.00" stroke="#dddddd"/><text x="80" y="368.00" text-anchor="end" font-size="12">0.2</text><line x1="85" y1="288.00" x2="830" y2="288.00" stroke="#dddddd"/><text x="80" y="292.00" text-anchor="end" font-size="12">0.4</text><line x1="85" y1="212.00" x2="830" y2="212.00" stroke="#dddddd"/><text x="80" y="216.00" text-anchor="end" font-size="12">0.6</text><line x1="85" y1="136.00" x2="830" y2="136.00" stroke="#dddddd"/><text x="80" y="140.00" text-anchor="end" font-size="12">0.8</text><line x1="85" y1="60.00" x2="830" y2="60.00" stroke="#dddddd"/><text x="80" y="64.00" text-anchor="end" font-size="12">1.0</text><text x="460.00" y="500" text-anchor="middle" font-size="14">replication</text><text x="20" y="250.00" text-anchor="middle" font-size="14" transform="rotate(-90 20 250.00)">resolution rate</text><polyline fill="none" stroke="#1f77b4" stroke-width="2.5" points="90.00,60.00 275.00,60.00 460.00,60.00 645.00,60.00 830.00,60.00"/><line x1="650" y1="82" x2="675" y2="82" stroke="#1f77b4" stroke-width="3"/><text x="682" y="87" font-size="13">complete_seedmind</text><polyline fill="none" stroke="#ff7f0e" stroke-width="2.5" points="90.00,440.00 275.00,440.00 460.00,440.00 645.00,440.00 830.00,440.00"/><line x1="650" y1="106" x2="675" y2="106" stroke="#ff7f0e" stroke-width="3"/><text x="682" y="111" font-size="13">no_human_teaching</text></svg>
