<svg xmlns="http://www.w3.org/2000/svg" width="900" height="520" viewBox="0 0 900 520"><rect width="100%" height="100%" fill="white"/><text x="450.0" y="30" text-anchor="middle" font-size="20" font-weight="bold">Familiar-task cumulative success</text><line x1="90" y1="60" x2="90" y2="440" stroke="black"/><line x1="90" y1="440" x2="830" y2="440" stroke="black"/><line x1="85" y1="440.00" x2="830" y2="440.00" stroke="#dddddd"/><text x="80" y="444.00" text-anchor="end" font-size="12">0.0</text><line x1="85" y1="364.00" x2="830" y2="364.00" stroke="#dddddd"/><text x="80" y="368.00" text-anchor="end" font-size="12">0.2</text><line x1="85" y1="288.00" x2="830" y2="288.00" stroke="#dddddd"/><text x="80" y="292.00" text-anchor="end" font-size="12">0.4</text><line x1="85" y1="212.00" x2="830" y2="212.00" stroke="#dddddd"/><text x="80" y="216.00" text-anchor="end" font-size="12">0.6</text><line x1="85" y1="136.00" x2="830" y2="136.00" stroke="#dddddd"/><text x="80" y="140.00" text-anchor="end" font-size="12">0.8</text><line x1="85" y1="60.00" x2="830" y2="60.00" stroke="#dddddd"/><text x="80" y="64.00" text-anchor="end" font-size="12">1.0</text><text x="460.00" y="500" text-anchor="middle" font-size="14">evaluated episode</text><text x="20" y="250.00" text-anchor="middle" font-size="14" transform="rotate(-90 20 250.00)">cumulative success rate</text><polyline fill="none" stroke="#1f77b4" stroke-width="2.5" points="90.00,440.00 97.47,440.00 104.95,440.00 112.42,440.00 119.90,440.00 127.37,440.00 134.85,440.00 142.32,440.00 149.80,440.00 157.27,440.00 164.75,440.00 172.22,440.00 179.70,440.00 187.17,440.00 194.65,440.00 202.12,440.00 209.60,440.00 217.07,440.00 224.55,440.00 232.02,440.00 239.49,440.00 246.97,440.00 254.44,440.00 261.92,440.00 269.39,440.00 276.87,440.00 284.34,440.00 291.82,440.00 299.29,440.00 306.77,440.00 314.24,440.00 321.72,440.00 329.19,440.00 336.67,440.00 344.14,440.00 351.62,440.00 359.09,440.00 366.57,440.00 374.04,440.00 381.52,440.00 388.99,440.00 396.46,440.00 403.94,440.00 411.41,440.00 418.89,440.00 426.36,440.00 433.84,440.00 441.31,440.00 448.79,440.00 456.26,440.00 463.74,440.00 471.21,440.00 478.69,440.00 486.16,440.00 493.64,440.00 501.11,440.00 508.59,440.00 516.06,440.00 523.54,440.00 531.01,440.00 538.48,440.00 545.96,440.00 553.43,440.00 560.91,440.00 568.38,440.00 575.86,440.00 583.33,440.00 590.81,440.00 598.28,440.00 605.76,440.00 613.23,440.00 620.71,440.00 628.18,440.00 635.66,440.00 643.13,440.00 650.61,440.00 658.08,440.00 665.56,440.00 673.03,440.00 680.51,440.00 687.98,440.00 695.45,440.00 702.93,440.00 710.40,440.00 717.88,440.00 725.35,440.00 732.83,440.00 740.30,440.00 747.78,440.00 755.25,440.00 762.73,440.00 770.20,440.00 777.68,440.00 785.15,440.00 792.63,440.00 800.10,440.00 807.58,440.00 815.05,440.00 822.53,440.00 830.00,440.00"/><line x1="650" y1="82" x2="675" y2="82" stroke="#1f77b4" stroke-width="3"/><text x="682" y="87" font-size="13">random_primitive</text><polyline fill="none" stroke="#ff7f0e" stroke-width="2.5" points="90.00,440.00 97.47,440.00 104.95,440.00 112.42,440.00 119.90,440.00 127.37,440.00 134.85,440.00 142.32,440.00 149.80,440.00 157.27,440.00 164.75,440.00 172.22,440.00 179.70,440.00 187.17,440.00 194.65,440.00 202.12,440.00 209.60,440.00 217.07,440.00 224.55,440.00 232.02,440.00 239.49,440.00 246.97,440.00 254.44,440.00 261.92,440.00 269.39,440.00 276.87,440.00 284.34,440.00 291.82,440.00 299.29,440.00 306.77,440.00 314.24,440.00 321.72,440.00 329.19,440.00 336.67,440.00 344.14,440.00 351.62,440.00 359.09,440.00 366.57,440.00 374.04,440.00 381.52,440.00 388.99,440.00 396.46,440.00 403.94,440.00 411.41,440.00 418.89,440.00 426.36,440.00 433.84,440.00 441.31,440.00 448.79,440.00 456.26,440.00 463.74,440.00 471.21,440.00 478.69,440.00 486.16,440.00 493.64,440.00 501.11,440.00 508.59,440.00 516.06,440.00 523.54,440.00 531.01,440.00 538.48,440.00 545.96,440.00 553.43,440.00 560.91,440.00 568.38,440.00 575.86,440.00 583.33,440.00 590.81,440.00 598.28,440.00 605.76,440.00 613.23,440.00 620.71,440.00 628.18,440.00 635.66,440.00 643.13,440.00 650.61,440.00 658.08,440.00 665.56,440.00 673.03,440.00 680.51,440.00 687.98,440.00 695.45,440.00 702.93,440.00 710.40,440.00 717.88,440.00 725.35,440.00 732.83,440.00 740.30,440.00 747.78,440.00 755.25,440.00 762.73,440.00 770.20,440.00 777.68,440.00 785.15,440.00 792.63,440.00 800.10,440.00 807.58,440.00 815.05,440.00 822.53,440.00 830.00,440.00"/><line x1="650" y1="106" x2="675" y2="106" stroke="#ff7f0e" stroke-width="3"/><text x="682" y="111" font-size="13">fixed_reactive</text><polyline fill="none" stroke="#2ca02c" stroke-width="2.5" points="90.00,440.00 97.47,440.00 104.95,440.00 112.42,440.00 119.90,440.00 127.37,440.00 134.85,385.71 142.32,345.00 149.80,313.33 157.27,326.00 164.75,336.36 172.22,313.33 179.70,293.85 187.17,277.14 194.65,288.00 202.12,297.50 209.60,283.53 217.07,271.11 224.55,260.00 232.02,269.00 239.49,277.14 246.97,284.55 254.44,291.30 261.92,297.50 269.39,303.20 276.87,308.46 284.34,313.33 291.82,317.86 299.29,322.07 306.77,326.00 314.24,329.68 321.72,321.25 329.19,313.33 336.67,305.88 344.14,309.71 351.62,313.33 359.09,306.49 366.57,300.00 374.04,293.85 381.52,297.50 388.99,300.98 396.46,295.24 403.94,289.77 411.41,284.55 418.89,288.00 426.36,291.30 433.84,294.47 441.31,297.50 448.79,300.41 456.26,303.20 463.74,305.88 471.21,308.46 478.69,310.94 486.16,313.33 493.64,315.64 501.11,317.86 508.59,313.33 516.06,308.97 523.54,304.75 531.01,307.00 538.48,309.18 545.96,305.16 553.43,301.27 560.91,297.50 568.38,299.69 575.86,301.82 583.33,298.21 590.81,294.71 598.28,291.30 605.76,293.43 613.23,295.49 620.71,297.50 628.18,299.45 635.66,301.35 643.13,303.20 650.61,305.00 658.08,306.75 665.56,308.46 673.03,310.13 680.51,311.75 687.98,313.33 695.45,310.24 702.93,307.23 710.40,304.29 717.88,305.88 725.35,307.44 732.83,304.60 740.30,301.82 747.78,299.10 755.25,300.67 762.73,302.20 770.20,299.57 777.68,296.99 785.15,294.47 792.63,296.00 800.10,297.50 807.58,298.97 815.05,300.41 822.53,301.82 830.00,303.20"/><line x1="650" y1="130" x2="675" y2="130" stroke="#2ca02c" stroke-width="3"/><text x="682" y="135" font-size="13">rollback_production_reference</text><polyline fill="none" stroke="#9467bd" stroke-width="2.5" points="90.00,440.00 97.47,440.00 104.95,440.00 112.42,440.00 119.90,440.00 127.37,440.00 134.85,385.71 142.32,345.00 149.80,313.33 157.27,326.00 164.75,336.36 172.22,313.33 179.70,293.85 187.17,277.14 194.65,288.00 202.12,297.50 209.60,283.53 217.07,271.11 224.55,260.00 232.02,269.00 239.49,277.14 246.97,284.55 254.44,291.30 261.92,297.50 269.39,303.20 276.87,308.46 284.34,313.33 291.82,317.86 299.29,322.07 306.77,326.00 314.24,329.68 321.72,321.25 329.19,313.33 336.67,305.88 344.14,309.71 351.62,313.33 359.09,306.49 366.57,300.00 374.04,293.85 381.52,297.50 388.99,300.98 396.46,295.24 403.94,289.77 411.41,284.55 418.89,288.00 426.36,291.30 433.84,294.47 441.31,297.50 448.79,300.41 456.26,303.20 463.74,305.88 471.21,308.46 478.69,310.94 486.16,313.33 493.64,315.64 501.11,317.86 508.59,313.33 516.06,308.97 523.54,304.75 531.01,307.00 538.48,309.18 545.96,305.16 553.43,301.27 560.91,297.50 568.38,299.69 575.86,301.82 583.33,298.21 590.81,294.71 598.28,291.30 605.76,293.43 613.23,295.49 620.71,297.50 628.18,299.45 635.66,301.35 643.13,303.20 650.61,305.00 658.08,306.75 665.56,308.46 673.03,310.13 680.51,311.75 687.98,313.33 695.45,310.24 702.93,307.23 710.40,304.29 717.88,305.88 725.35,307.44 732.83,304.60 740.30,301.82 747.78,299.10 755.25,300.67 762.73,302.20 770.20,299.57 777.68,296.99 785.15,294.47 792.63,296.00 800.10,297.50 807.58,298.97 815.05,300.41 822.53,301.82 830.00,303.20"/><line x1="650" y1="154" x2="675" y2="154" stroke="#9467bd" stroke-width="3"/><text x="682" y="159" font-size="13">complete_seedmind</text></svg>
