<svg xmlns="http://www.w3.org/2000/svg" width="760" height="500" viewBox="0 0 760 500"><rect width="100%" height="100%" fill="white"/><text x="380.0" y="30" text-anchor="middle" font-size="20" font-weight="bold">Familiar-task retention</text><line x1="90" y1="60" x2="90" y2="400" stroke="black"/><line x1="90" y1="400" x2="690" y2="400" stroke="black"/><line x1="85" y1="400.00" x2="690" y2="400.00" stroke="#dddddd"/><text x="80" y="404.00" text-anchor="end" font-size="12">0.0</text><line x1="85" y1="332.00" x2="690" y2="332.00" stroke="#dddddd"/><text x="80" y="336.00" text-anchor="end" font-size="12">0.2</text><line x1="85" y1="264.00" x2="690" y2="264.00" stroke="#dddddd"/><text x="80" y="268.00" text-anchor="end" font-size="12">0.4</text><line x1="85" y1="196.00" x2="690" y2="196.00" stroke="#dddddd"/><text x="80" y="200.00" text-anchor="end" font-size="12">0.6</text><line x1="85" y1="128.00" x2="690" y2="128.00" stroke="#dddddd"/><text x="80" y="132.00" text-anchor="end" font-size="12">0.8</text><line x1="85" y1="60.00" x2="690" y2="60.00" stroke="#dddddd"/><text x="80" y="64.00" text-anchor="end" font-size="12">1.0</text><text x="390.00" y="480" text-anchor="middle" font-size="14">condition</text><text x="20" y="230.00" text-anchor="middle" font-size="14" transform="rotate(-90 20 230.00)">success rate</text><rect x="157.50" y="272.50" width="165.00" height="127.50" fill="#4c78a8"/><text x="240.00" y="264.50" text-anchor="middle" font-size="13">0.375</text><text x="240.00" y="425" text-anchor="middle" font-size="12">frozen baseline</text><rect x="457.50" y="272.50" width="165.00" height="127.50" fill="#4c78a8"/><text x="540.00" y="264.50" text-anchor="middle" font-size="13">0.375</text><text x="540.00" y="425" text-anchor="middle" font-size="12">routed rejected candidate</text></svg>
